<svg xmlns="http://www.w3.org/2000/svg" viewBox="0 0 170 128" width="170px" version="1.1" height="128px">
	<g transform="matrix(1.0,0.0,0.0,1.0,0.5,0.5)">
		<rect x="2.0" width="10.0" y="44.0" fill="#ff8000" stroke="#000000" height="10.0">
		</rect>
		<rect x="12.0" width="10.0" y="44.0" fill="#ff8000" stroke="#000000" height="10.0">
		</rect>
		<rect x="22.0" width="10.0" y="44.0" fill="#ff8000" stroke="#000000" height="10.0">
		</rect>
		<rect x="32.0" width="10.0" y="44.0" fill="#ff8000" stroke="#000000" height="10.0">
		</rect>
		<rect x="2.0" width="10.0" y="54.0" fill="#ff8000" stroke="#000000" height="10.0">
		</rect>
		<rect x="12.0" width="10.0" y="54.0" fill="#ff8000" stroke="#000000" height="10.0">
		</rect>
		<rect x="22.0" width="10.0" y="54.0" fill="#ff8000" stroke="#000000" height="10.0">
		</rect>
		<rect x="32.0" width="10.0" y="54.0" fill="#ff8000" stroke="#000000" height="10.0">
		</rect>
		<rect x="2.0" width="10.0" y="64.0" fill="#ff8000" stroke="#000000" height="10.0">
		</rect>
		<rect x="12.0" width="10.0" y="64.0" fill="#ff8000" stroke="#000000" height="10.0">
		</rect>
		<rect x="22.0" width="10.0" y="64.0" fill="#ff8000" stroke="#000000" height="10.0">
		</rect>
		<rect x="32.0" width="10.0" y="64.0" fill="#ff8000" stroke="#000000" height="10.0">
		</rect>
		<rect x="2.0" width="10.0" y="74.0" fill="#ff8000" stroke="#000000" height="10.0">
		</rect>
		<rect x="12.0" width="10.0" y="74.0" fill="#ff8000" stroke="#000000" height="10.0">
		</rect>
		<rect x="22.0" width="10.0" y="74.0" fill="#ff8000" stroke="#000000" height="10.0">
		</rect>
		<rect x="32.0" width="10.0" y="74.0" fill="#ff8000" stroke="#000000" height="10.0">
		</rect>
		<rect x="44.0" width="10.0" y="86.0" fill="#ffff00" stroke="#000000" height="10.0">
		</rect>
		<rect x="54.0" width="10.0" y="86.0" fill="#ffff00" stroke="#000000" height="10.0">
		</rect>
		<rect x="64.0" width="10.0" y="86.0" fill="#ffff00" stroke="#000000" height="10.0">
		</rect>
		<rect x="74.0" width="10.0" y="86.0" fill="#ffff00" stroke="#000000" height="10.0">
		</rect>
		<rect x="44.0" width="10.0" y="96.0" fill="#ffff00" stroke="#000000" height="10.0">
		</rect>
		<rect x="54.0" width="10.0" y="96.0" fill="#ffff00" stroke="#000000" height="10.0">
		</rect>
		<rect x="64.0" width="10.0" y="96.0" fill="#ffff00" stroke="#000000" height="10.0">
		</rect>
		<rect x="74.0" width="10.0" y="96.0" fill="#ffff00" stroke="#000000" height="10.0">
		</rect>
		<rect x="44.0" width="10.0" y="106.0" fill="#ffff00" stroke="#000000" height="10.0">
		</rect>
		<rect x="54.0" width="10.0" y="106.0" fill="#ffff00" stroke="#000000" height="10.0">
		</rect>
		<rect x="64.0" width="10.0" y="106.0" fill="#ffff00" stroke="#000000" height="10.0">
		</rect>
		<rect x="74.0" width="10.0" y="106.0" fill="#ffff00" stroke="#000000" height="10.0">
		</rect>
		<rect x="44.0" width="10.0" y="116.0" fill="#ffff00" stroke="#000000" height="10.0">
		</rect>
		<rect x="54.0" width="10.0" y="116.0" fill="#ffff00" stroke="#000000" height="10.0">
		</rect>
		<rect x="64.0" width="10.0" y="116.0" fill="#ffff00" stroke="#000000" height="10.0">
		</rect>
		<rect x="74.0" width="10.0" y="116.0" fill="#ffff00" stroke="#000000" height="10.0">
		</rect>
		<rect x="128.0" width="10.0" y="44.0" fill="#0000ff" stroke="#000000" height="10.0">
		</rect>
		<rect x="138.0" width="10.0" y="44.0" fill="#0000ff" stroke="#000000" height="10.0">
		</rect>
		<rect x="148.0" width="10.0" y="44.0" fill="#0000ff" stroke="#000000" height="10.0">
		</rect>
		<rect x="158.0" width="10.0" y="44.0" fill="#0000ff" stroke="#000000" height="10.0">
		</rect>
		<rect x="128.0" width="10.0" y="54.0" fill="#0000ff" stroke="#000000" height="10.0">
		</rect>
		<rect x="138.0" width="10.0" y="54.0" fill="#0000ff" stroke="#000000" height="10.0">
		</rect>
		<rect x="148.0" width="10.0" y="54.0" fill="#0000ff" stroke="#000000" height="10.0">
		</rect>
		<rect x="158.0" width="10.0" y="54.0" fill="#0000ff" stroke="#000000" height="10.0">
		</rect>
		<rect x="128.0" width="10.0" y="64.0" fill="#0000ff" stroke="#000000" height="10.0">
		</rect>
		<rect x="138.0" width="10.0" y="64.0" fill="#0000ff" stroke="#000000" height="10.0">
		</rect>
		<rect x="148.0" width="10.0" y="64.0" fill="#0000ff" stroke="#000000" height="10.0">
		</rect>
		<rect x="158.0" width="10.0" y="64.0" fill="#0000ff" stroke="#000000" height="10.0">
		</rect>
		<rect x="128.0" width="10.0" y="74.0" fill="#0000ff" stroke="#000000" height="10.0">
		</rect>
		<rect x="138.0" width="10.0" y="74.0" fill="#0000ff" stroke="#000000" height="10.0">
		</rect>
		<rect x="148.0" width="10.0" y="74.0" fill="#0000ff" stroke="#000000" height="10.0">
		</rect>
		<rect x="158.0" width="10.0" y="74.0" fill="#0000ff" stroke="#000000" height="10.0">
		</rect>
		<rect x="86.0" width="10.0" y="44.0" fill="#ff0000" stroke="#000000" height="10.0">
		</rect>
		<rect x="96.0" width="10.0" y="44.0" fill="#ff0000" stroke="#000000" height="10.0">
		</rect>
		<rect x="106.0" width="10.0" y="44.0" fill="#ff0000" stroke="#000000" height="10.0">
		</rect>
		<rect x="116.0" width="10.0" y="44.0" fill="#ff0000" stroke="#000000" height="10.0">
		</rect>
		<rect x="86.0" width="10.0" y="54.0" fill="#ff0000" stroke="#000000" height="10.0">
		</rect>
		<rect x="96.0" width="10.0" y="54.0" fill="#ff0000" stroke="#000000" height="10.0">
		</rect>
		<rect x="106.0" width="10.0" y="54.0" fill="#ff0000" stroke="#000000" height="10.0">
		</rect>
		<rect x="116.0" width="10.0" y="54.0" fill="#ff0000" stroke="#000000" height="10.0">
		</rect>
		<rect x="86.0" width="10.0" y="64.0" fill="#ff0000" stroke="#000000" height="10.0">
		</rect>
		<rect x="96.0" width="10.0" y="64.0" fill="#ff0000" stroke="#000000" height="10.0">
		</rect>
		<rect x="106.0" width="10.0" y="64.0" fill="#ff0000" stroke="#000000" height="10.0">
		</rect>
		<rect x="116.0" width="10.0" y="64.0" fill="#ff0000" stroke="#000000" height="10.0">
		</rect>
		<rect x="86.0" width="10.0" y="74.0" fill="#ff0000" stroke="#000000" height="10.0">
		</rect>
		<rect x="96.0" width="10.0" y="74.0" fill="#ff0000" stroke="#000000" height="10.0">
		</rect>
		<rect x="106.0" width="10.0" y="74.0" fill="#ff0000" stroke="#000000" height="10.0">
		</rect>
		<rect x="116.0" width="10.0" y="74.0" fill="#ff0000" stroke="#000000" height="10.0">
		</rect>
		<rect x="44.0" width="10.0" y="2.0" fill="#ffffff" stroke="#000000" height="10.0">
		</rect>
		<rect x="54.0" width="10.0" y="2.0" fill="#ffffff" stroke="#000000" height="10.0">
		</rect>
		<rect x="64.0" width="10.0" y="2.0" fill="#ffffff" stroke="#000000" height="10.0">
		</rect>
		<rect x="74.0" width="10.0" y="2.0" fill="#ffffff" stroke="#000000" height="10.0">
		</rect>
		<rect x="44.0" width="10.0" y="12.0" fill="#ffffff" stroke="#000000" height="10.0">
		</rect>
		<rect x="54.0" width="10.0" y="12.0" fill="#ffffff" stroke="#000000" height="10.0">
		</rect>
		<rect x="64.0" width="10.0" y="12.0" fill="#ffffff" stroke="#000000" height="10.0">
		</rect>
		<rect x="74.0" width="10.0" y="12.0" fill="#ffffff" stroke="#000000" height="10.0">
		</rect>
		<rect x="44.0" width="10.0" y="22.0" fill="#ffffff" stroke="#000000" height="10.0">
		</rect>
		<rect x="54.0" width="10.0" y="22.0" fill="#ffffff" stroke="#000000" height="10.0">
		</rect>
		<rect x="64.0" width="10.0" y="22.0" fill="#ffffff" stroke="#000000" height="10.0">
		</rect>
		<rect x="74.0" width="10.0" y="22.0" fill="#ffffff" stroke="#000000" height="10.0">
		</rect>
		<rect x="44.0" width="10.0" y="32.0" fill="#ffffff" stroke="#000000" height="10.0">
		</rect>
		<rect x="54.0" width="10.0" y="32.0" fill="#ffffff" stroke="#000000" height="10.0">
		</rect>
		<rect x="64.0" width="10.0" y="32.0" fill="#ffffff" stroke="#000000" height="10.0">
		</rect>
		<rect x="74.0" width="10.0" y="32.0" fill="#ffffff" stroke="#000000" height="10.0">
		</rect>
		<rect x="44.0" width="10.0" y="44.0" fill="#00ff00" stroke="#000000" height="10.0">
		</rect>
		<rect x="54.0" width="10.0" y="44.0" fill="#00ff00" stroke="#000000" height="10.0">
		</rect>
		<rect x="64.0" width="10.0" y="44.0" fill="#00ff00" stroke="#000000" height="10.0">
		</rect>
		<rect x="74.0" width="10.0" y="44.0" fill="#00ff00" stroke="#000000" height="10.0">
		</rect>
		<rect x="44.0" width="10.0" y="54.0" fill="#00ff00" stroke="#000000" height="10.0">
		</rect>
		<rect x="54.0" width="10.0" y="54.0" fill="#00ff00" stroke="#000000" height="10.0">
		</rect>
		<rect x="64.0" width="10.0" y="54.0" fill="#00ff00" stroke="#000000" height="10.0">
		</rect>
		<rect x="74.0" width="10.0" y="54.0" fill="#00ff00" stroke="#000000" height="10.0">
		</rect>
		<rect x="44.0" width="10.0" y="64.0" fill="#00ff00" stroke="#000000" height="10.0">
		</rect>
		<rect x="54.0" width="10.0" y="64.0" fill="#00ff00" stroke="#000000" height="10.0">
		</rect>
		<rect x="64.0" width="10.0" y="64.0" fill="#00ff00" stroke="#000000" height="10.0">
		</rect>
		<rect x="74.0" width="10.0" y="64.0" fill="#00ff00" stroke="#000000" height="10.0">
		</rect>
		<rect x="44.0" width="10.0" y="74.0" fill="#00ff00" stroke="#000000" height="10.0">
		</rect>
		<rect x="54.0" width="10.0" y="74.0" fill="#00ff00" stroke="#000000" height="10.0">
		</rect>
		<rect x="64.0" width="10.0" y="74.0" fill="#00ff00" stroke="#000000" height="10.0">
		</rect>
		<rect x="74.0" width="10.0" y="74.0" fill="#00ff00" stroke="#000000" height="10.0">
		</rect>
	</g>
</svg>