<svg xmlns="http://www.w3.org/2000/svg" viewBox="0 0 290 218" width="290px" version="1.1" height="218px">
	<g transform="matrix(1.0,0.0,0.0,1.0,0.5,0.5)">
		<rect x="2.0" width="10.0" y="74.0" fill="#ff8000" stroke="#000000" height="10.0">
		</rect>
		<rect x="12.0" width="10.0" y="74.0" fill="#ff8000" stroke="#000000" height="10.0">
		</rect>
		<rect x="22.0" width="10.0" y="74.0" fill="#ff8000" stroke="#000000" height="10.0">
		</rect>
		<rect x="32.0" width="10.0" y="74.0" fill="#ff8000" stroke="#000000" height="10.0">
		</rect>
		<rect x="42.0" width="10.0" y="74.0" fill="#ff8000" stroke="#000000" height="10.0">
		</rect>
		<rect x="52.0" width="10.0" y="74.0" fill="#ff8000" stroke="#000000" height="10.0">
		</rect>
		<rect x="62.0" width="10.0" y="74.0" fill="#ff8000" stroke="#000000" height="10.0">
		</rect>
		<rect x="2.0" width="10.0" y="84.0" fill="#ff8000" stroke="#000000" height="10.0">
		</rect>
		<rect x="12.0" width="10.0" y="84.0" fill="#ff8000" stroke="#000000" height="10.0">
		</rect>
		<rect x="22.0" width="10.0" y="84.0" fill="#ff8000" stroke="#000000" height="10.0">
		</rect>
		<rect x="32.0" width="10.0" y="84.0" fill="#ff8000" stroke="#000000" height="10.0">
		</rect>
		<rect x="42.0" width="10.0" y="84.0" fill="#ff8000" stroke="#000000" height="10.0">
		</rect>
		<rect x="52.0" width="10.0" y="84.0" fill="#ff8000" stroke="#000000" height="10.0">
		</rect>
		<rect x="62.0" width="10.0" y="84.0" fill="#ff8000" stroke="#000000" height="10.0">
		</rect>
		<rect x="2.0" width="10.0" y="94.0" fill="#ff8000" stroke="#000000" height="10.0">
		</rect>
		<rect x="12.0" width="10.0" y="94.0" fill="#ff8000" stroke="#000000" height="10.0">
		</rect>
		<rect x="22.0" width="10.0" y="94.0" fill="#ff8000" stroke="#000000" height="10.0">
		</rect>
		<rect x="32.0" width="10.0" y="94.0" fill="#ff8000" stroke="#000000" height="10.0">
		</rect>
		<rect x="42.0" width="10.0" y="94.0" fill="#ff8000" stroke="#000000" height="10.0">
		</rect>
		<rect x="52.0" width="10.0" y="94.0" fill="#ff8000" stroke="#000000" height="10.0">
		</rect>
		<rect x="62.0" width="10.0" y="94.0" fill="#ff8000" stroke="#000000" height="10.0">
		</rect>
		<rect x="2.0" width="10.0" y="104.0" fill="#ff8000" stroke="#000000" height="10.0">
		</rect>
		<rect x="12.0" width="10.0" y="104.0" fill="#ff8000" stroke="#000000" height="10.0">
		</rect>
		<rect x="22.0" width="10.0" y="104.0" fill="#ff8000" stroke="#000000" height="10.0">
		</rect>
		<rect x="32.0" width="10.0" y="104.0" fill="#ff8000" stroke="#000000" height="10.0">
		</rect>
		<rect x="42.0" width="10.0" y="104.0" fill="#ff8000" stroke="#000000" height="10.0">
		</rect>
		<rect x="52.0" width="10.0" y="104.0" fill="#ff8000" stroke="#000000" height="10.0">
		</rect>
		<rect x="62.0" width="10.0" y="104.0" fill="#ff8000" stroke="#000000" height="10.0">
		</rect>
		<rect x="2.0" width="10.0" y="114.0" fill="#ff8000" stroke="#000000" height="10.0">
		</rect>
		<rect x="12.0" width="10.0" y="114.0" fill="#ff8000" stroke="#000000" height="10.0">
		</rect>
		<rect x="22.0" width="10.0" y="114.0" fill="#ff8000" stroke="#000000" height="10.0">
		</rect>
		<rect x="32.0" width="10.0" y="114.0" fill="#ff8000" stroke="#000000" height="10.0">
		</rect>
		<rect x="42.0" width="10.0" y="114.0" fill="#ff8000" stroke="#000000" height="10.0">
		</rect>
		<rect x="52.0" width="10.0" y="114.0" fill="#ff8000" stroke="#000000" height="10.0">
		</rect>
		<rect x="62.0" width="10.0" y="114.0" fill="#ff8000" stroke="#000000" height="10.0">
		</rect>
		<rect x="2.0" width="10.0" y="124.0" fill="#ff8000" stroke="#000000" height="10.0">
		</rect>
		<rect x="12.0" width="10.0" y="124.0" fill="#ff8000" stroke="#000000" height="10.0">
		</rect>
		<rect x="22.0" width="10.0" y="124.0" fill="#ff8000" stroke="#000000" height="10.0">
		</rect>
		<rect x="32.0" width="10.0" y="124.0" fill="#ff8000" stroke="#000000" height="10.0">
		</rect>
		<rect x="42.0" width="10.0" y="124.0" fill="#ff8000" stroke="#000000" height="10.0">
		</rect>
		<rect x="52.0" width="10.0" y="124.0" fill="#ff8000" stroke="#000000" height="10.0">
		</rect>
		<rect x="62.0" width="10.0" y="124.0" fill="#ff8000" stroke="#000000" height="10.0">
		</rect>
		<rect x="2.0" width="10.0" y="134.0" fill="#ff8000" stroke="#000000" height="10.0">
		</rect>
		<rect x="12.0" width="10.0" y="134.0" fill="#ff8000" stroke="#000000" height="10.0">
		</rect>
		<rect x="22.0" width="10.0" y="134.0" fill="#ff8000" stroke="#000000" height="10.0">
		</rect>
		<rect x="32.0" width="10.0" y="134.0" fill="#ff8000" stroke="#000000" height="10.0">
		</rect>
		<rect x="42.0" width="10.0" y="134.0" fill="#ff8000" stroke="#000000" height="10.0">
		</rect>
		<rect x="52.0" width="10.0" y="134.0" fill="#ff8000" stroke="#000000" height="10.0">
		</rect>
		<rect x="62.0" width="10.0" y="134.0" fill="#ff8000" stroke="#000000" height="10.0">
		</rect>
		<rect x="74.0" width="10.0" y="146.0" fill="#ffff00" stroke="#000000" height="10.0">
		</rect>
		<rect x="84.0" width="10.0" y="146.0" fill="#ffff00" stroke="#000000" height="10.0">
		</rect>
		<rect x="94.0" width="10.0" y="146.0" fill="#ffff00" stroke="#000000" height="10.0">
		</rect>
		<rect x="104.0" width="10.0" y="146.0" fill="#ffff00" stroke="#000000" height="10.0">
		</rect>
		<rect x="114.0" width="10.0" y="146.0" fill="#ffff00" stroke="#000000" height="10.0">
		</rect>
		<rect x="124.0" width="10.0" y="146.0" fill="#ffff00" stroke="#000000" height="10.0">
		</rect>
		<rect x="134.0" width="10.0" y="146.0" fill="#ffff00" stroke="#000000" height="10.0">
		</rect>
		<rect x="74.0" width="10.0" y="156.0" fill="#ffff00" stroke="#000000" height="10.0">
		</rect>
		<rect x="84.0" width="10.0" y="156.0" fill="#ffff00" stroke="#000000" height="10.0">
		</rect>
		<rect x="94.0" width="10.0" y="156.0" fill="#ffff00" stroke="#000000" height="10.0">
		</rect>
		<rect x="104.0" width="10.0" y="156.0" fill="#ffff00" stroke="#000000" height="10.0">
		</rect>
		<rect x="114.0" width="10.0" y="156.0" fill="#ffff00" stroke="#000000" height="10.0">
		</rect>
		<rect x="124.0" width="10.0" y="156.0" fill="#ffff00" stroke="#000000" height="10.0">
		</rect>
		<rect x="134.0" width="10.0" y="156.0" fill="#ffff00" stroke="#000000" height="10.0">
		</rect>
		<rect x="74.0" width="10.0" y="166.0" fill="#ffff00" stroke="#000000" height="10.0">
		</rect>
		<rect x="84.0" width="10.0" y="166.0" fill="#ffff00" stroke="#000000" height="10.0">
		</rect>
		<rect x="94.0" width="10.0" y="166.0" fill="#ffff00" stroke="#000000" height="10.0">
		</rect>
		<rect x="104.0" width="10.0" y="166.0" fill="#ffff00" stroke="#000000" height="10.0">
		</rect>
		<rect x="114.0" width="10.0" y="166.0" fill="#ffff00" stroke="#000000" height="10.0">
		</rect>
		<rect x="124.0" width="10.0" y="166.0" fill="#ffff00" stroke="#000000" height="10.0">
		</rect>
		<rect x="134.0" width="10.0" y="166.0" fill="#ffff00" stroke="#000000" height="10.0">
		</rect>
		<rect x="74.0" width="10.0" y="176.0" fill="#ffff00" stroke="#000000" height="10.0">
		</rect>
		<rect x="84.0" width="10.0" y="176.0" fill="#ffff00" stroke="#000000" height="10.0">
		</rect>
		<rect x="94.0" width="10.0" y="176.0" fill="#ffff00" stroke="#000000" height="10.0">
		</rect>
		<rect x="104.0" width="10.0" y="176.0" fill="#ffff00" stroke="#000000" height="10.0">
		</rect>
		<rect x="114.0" width="10.0" y="176.0" fill="#ffff00" stroke="#000000" height="10.0">
		</rect>
		<rect x="124.0" width="10.0" y="176.0" fill="#ffff00" stroke="#000000" height="10.0">
		</rect>
		<rect x="134.0" width="10.0" y="176.0" fill="#ffff00" stroke="#000000" height="10.0">
		</rect>
		<rect x="74.0" width="10.0" y="186.0" fill="#ffff00" stroke="#000000" height="10.0">
		</rect>
		<rect x="84.0" width="10.0" y="186.0" fill="#ffff00" stroke="#000000" height="10.0">
		</rect>
		<rect x="94.0" width="10.0" y="186.0" fill="#ffff00" stroke="#000000" height="10.0">
		</rect>
		<rect x="104.0" width="10.0" y="186.0" fill="#ffff00" stroke="#000000" height="10.0">
		</rect>
		<rect x="114.0" width="10.0" y="186.0" fill="#ffff00" stroke="#000000" height="10.0">
		</rect>
		<rect x="124.0" width="10.0" y="186.0" fill="#ffff00" stroke="#000000" height="10.0">
		</rect>
		<rect x="134.0" width="10.0" y="186.0" fill="#ffff00" stroke="#000000" height="10.0">
		</rect>
		<rect x="74.0" width="10.0" y="196.0" fill="#ffff00" stroke="#000000" height="10.0">
		</rect>
		<rect x="84.0" width="10.0" y="196.0" fill="#ffff00" stroke="#000000" height="10.0">
		</rect>
		<rect x="94.0" width="10.0" y="196.0" fill="#ffff00" stroke="#000000" height="10.0">
		</rect>
		<rect x="104.0" width="10.0" y="196.0" fill="#ffff00" stroke="#000000" height="10.0">
		</rect>
		<rect x="114.0" width="10.0" y="196.0" fill="#ffff00" stroke="#000000" height="10.0">
		</rect>
		<rect x="124.0" width="10.0" y="196.0" fill="#ffff00" stroke="#000000" height="10.0">
		</rect>
		<rect x="134.0" width="10.0" y="196.0" fill="#ffff00" stroke="#000000" height="10.0">
		</rect>
		<rect x="74.0" width="10.0" y="206.0" fill="#ffff00" stroke="#000000" height="10.0">
		</rect>
		<rect x="84.0" width="10.0" y="206.0" fill="#ffff00" stroke="#000000" height="10.0">
		</rect>
		<rect x="94.0" width="10.0" y="206.0" fill="#ffff00" stroke="#000000" height="10.0">
		</rect>
		<rect x="104.0" width="10.0" y="206.0" fill="#ffff00" stroke="#000000" height="10.0">
		</rect>
		<rect x="114.0" width="10.0" y="206.0" fill="#ffff00" stroke="#000000" height="10.0">
		</rect>
		<rect x="124.0" width="10.0" y="206.0" fill="#ffff00" stroke="#000000" height="10.0">
		</rect>
		<rect x="134.0" width="10.0" y="206.0" fill="#ffff00" stroke="#000000" height="10.0">
		</rect>
		<rect x="218.0" width="10.0" y="74.0" fill="#0000ff" stroke="#000000" height="10.0">
		</rect>
		<rect x="228.0" width="10.0" y="74.0" fill="#0000ff" stroke="#000000" height="10.0">
		</rect>
		<rect x="238.0" width="10.0" y="74.0" fill="#0000ff" stroke="#000000" height="10.0">
		</rect>
		<rect x="248.0" width="10.0" y="74.0" fill="#0000ff" stroke="#000000" height="10.0">
		</rect>
		<rect x="258.0" width="10.0" y="74.0" fill="#0000ff" stroke="#000000" height="10.0">
		</rect>
		<rect x="268.0" width="10.0" y="74.0" fill="#0000ff" stroke="#000000" height="10.0">
		</rect>
		<rect x="278.0" width="10.0" y="74.0" fill="#0000ff" stroke="#000000" height="10.0">
		</rect>
		<rect x="218.0" width="10.0" y="84.0" fill="#0000ff" stroke="#000000" height="10.0">
		</rect>
		<rect x="228.0" width="10.0" y="84.0" fill="#0000ff" stroke="#000000" height="10.0">
		</rect>
		<rect x="238.0" width="10.0" y="84.0" fill="#0000ff" stroke="#000000" height="10.0">
		</rect>
		<rect x="248.0" width="10.0" y="84.0" fill="#0000ff" stroke="#000000" height="10.0">
		</rect>
		<rect x="258.0" width="10.0" y="84.0" fill="#0000ff" stroke="#000000" height="10.0">
		</rect>
		<rect x="268.0" width="10.0" y="84.0" fill="#0000ff" stroke="#000000" height="10.0">
		</rect>
		<rect x="278.0" width="10.0" y="84.0" fill="#0000ff" stroke="#000000" height="10.0">
		</rect>
		<rect x="218.0" width="10.0" y="94.0" fill="#0000ff" stroke="#000000" height="10.0">
		</rect>
		<rect x="228.0" width="10.0" y="94.0" fill="#0000ff" stroke="#000000" height="10.0">
		</rect>
		<rect x="238.0" width="10.0" y="94.0" fill="#0000ff" stroke="#000000" height="10.0">
		</rect>
		<rect x="248.0" width="10.0" y="94.0" fill="#0000ff" stroke="#000000" height="10.0">
		</rect>
		<rect x="258.0" width="10.0" y="94.0" fill="#0000ff" stroke="#000000" height="10.0">
		</rect>
		<rect x="268.0" width="10.0" y="94.0" fill="#0000ff" stroke="#000000" height="10.0">
		</rect>
		<rect x="278.0" width="10.0" y="94.0" fill="#0000ff" stroke="#000000" height="10.0">
		</rect>
		<rect x="218.0" width="10.0" y="104.0" fill="#0000ff" stroke="#000000" height="10.0">
		</rect>
		<rect x="228.0" width="10.0" y="104.0" fill="#0000ff" stroke="#000000" height="10.0">
		</rect>
		<rect x="238.0" width="10.0" y="104.0" fill="#0000ff" stroke="#000000" height="10.0">
		</rect>
		<rect x="248.0" width="10.0" y="104.0" fill="#0000ff" stroke="#000000" height="10.0">
		</rect>
		<rect x="258.0" width="10.0" y="104.0" fill="#0000ff" stroke="#000000" height="10.0">
		</rect>
		<rect x="268.0" width="10.0" y="104.0" fill="#0000ff" stroke="#000000" height="10.0">
		</rect>
		<rect x="278.0" width="10.0" y="104.0" fill="#0000ff" stroke="#000000" height="10.0">
		</rect>
		<rect x="218.0" width="10.0" y="114.0" fill="#0000ff" stroke="#000000" height="10.0">
		</rect>
		<rect x="228.0" width="10.0" y="114.0" fill="#0000ff" stroke="#000000" height="10.0">
		</rect>
		<rect x="238.0" width="10.0" y="114.0" fill="#0000ff" stroke="#000000" height="10.0">
		</rect>
		<rect x="248.0" width="10.0" y="114.0" fill="#0000ff" stroke="#000000" height="10.0">
		</rect>
		<rect x="258.0" width="10.0" y="114.0" fill="#0000ff" stroke="#000000" height="10.0">
		</rect>
		<rect x="268.0" width="10.0" y="114.0" fill="#0000ff" stroke="#000000" height="10.0">
		</rect>
		<rect x="278.0" width="10.0" y="114.0" fill="#0000ff" stroke="#000000" height="10.0">
		</rect>
		<rect x="218.0" width="10.0" y="124.0" fill="#0000ff" stroke="#000000" height="10.0">
		</rect>
		<rect x="228.0" width="10.0" y="124.0" fill="#0000ff" stroke="#000000" height="10.0">
		</rect>
		<rect x="238.0" width="10.0" y="124.0" fill="#0000ff" stroke="#000000" height="10.0">
		</rect>
		<rect x="248.0" width="10.0" y="124.0" fill="#0000ff" stroke="#000000" height="10.0">
		</rect>
		<rect x="258.0" width="10.0" y="124.0" fill="#0000ff" stroke="#000000" height="10.0">
		</rect>
		<rect x="268.0" width="10.0" y="124.0" fill="#0000ff" stroke="#000000" height="10.0">
		</rect>
		<rect x="278.0" width="10.0" y="124.0" fill="#0000ff" stroke="#000000" height="10.0">
		</rect>
		<rect x="218.0" width="10.0" y="134.0" fill="#0000ff" stroke="#000000" height="10.0">
		</rect>
		<rect x="228.0" width="10.0" y="134.0" fill="#0000ff" stroke="#000000" height="10.0">
		</rect>
		<rect x="238.0" width="10.0" y="134.0" fill="#0000ff" stroke="#000000" height="10.0">
		</rect>
		<rect x="248.0" width="10.0" y="134.0" fill="#0000ff" stroke="#000000" height="10.0">
		</rect>
		<rect x="258.0" width="10.0" y="134.0" fill="#0000ff" stroke="#000000" height="10.0">
		</rect>
		<rect x="268.0" width="10.0" y="134.0" fill="#0000ff" stroke="#000000" height="10.0">
		</rect>
		<rect x="278.0" width="10.0" y="134.0" fill="#0000ff" stroke="#000000" height="10.0">
		</rect>
		<rect x="146.0" width="10.0" y="74.0" fill="#ff0000" stroke="#000000" height="10.0">
		</rect>
		<rect x="156.0" width="10.0" y="74.0" fill="#ff0000" stroke="#000000" height="10.0">
		</rect>
		<rect x="166.0" width="10.0" y="74.0" fill="#ff0000" stroke="#000000" height="10.0">
		</rect>
		<rect x="176.0" width="10.0" y="74.0" fill="#ff0000" stroke="#000000" height="10.0">
		</rect>
		<rect x="186.0" width="10.0" y="74.0" fill="#ff0000" stroke="#000000" height="10.0">
		</rect>
		<rect x="196.0" width="10.0" y="74.0" fill="#ff0000" stroke="#000000" height="10.0">
		</rect>
		<rect x="206.0" width="10.0" y="74.0" fill="#ff0000" stroke="#000000" height="10.0">
		</rect>
		<rect x="146.0" width="10.0" y="84.0" fill="#ff0000" stroke="#000000" height="10.0">
		</rect>
		<rect x="156.0" width="10.0" y="84.0" fill="#ff0000" stroke="#000000" height="10.0">
		</rect>
		<rect x="166.0" width="10.0" y="84.0" fill="#ff0000" stroke="#000000" height="10.0">
		</rect>
		<rect x="176.0" width="10.0" y="84.0" fill="#ff0000" stroke="#000000" height="10.0">
		</rect>
		<rect x="186.0" width="10.0" y="84.0" fill="#ff0000" stroke="#000000" height="10.0">
		</rect>
		<rect x="196.0" width="10.0" y="84.0" fill="#ff0000" stroke="#000000" height="10.0">
		</rect>
		<rect x="206.0" width="10.0" y="84.0" fill="#ff0000" stroke="#000000" height="10.0">
		</rect>
		<rect x="146.0" width="10.0" y="94.0" fill="#ff0000" stroke="#000000" height="10.0">
		</rect>
		<rect x="156.0" width="10.0" y="94.0" fill="#ff0000" stroke="#000000" height="10.0">
		</rect>
		<rect x="166.0" width="10.0" y="94.0" fill="#ff0000" stroke="#000000" height="10.0">
		</rect>
		<rect x="176.0" width="10.0" y="94.0" fill="#ff0000" stroke="#000000" height="10.0">
		</rect>
		<rect x="186.0" width="10.0" y="94.0" fill="#ff0000" stroke="#000000" height="10.0">
		</rect>
		<rect x="196.0" width="10.0" y="94.0" fill="#ff0000" stroke="#000000" height="10.0">
		</rect>
		<rect x="206.0" width="10.0" y="94.0" fill="#ff0000" stroke="#000000" height="10.0">
		</rect>
		<rect x="146.0" width="10.0" y="104.0" fill="#ff0000" stroke="#000000" height="10.0">
		</rect>
		<rect x="156.0" width="10.0" y="104.0" fill="#ff0000" stroke="#000000" height="10.0">
		</rect>
		<rect x="166.0" width="10.0" y="104.0" fill="#ff0000" stroke="#000000" height="10.0">
		</rect>
		<rect x="176.0" width="10.0" y="104.0" fill="#ff0000" stroke="#000000" height="10.0">
		</rect>
		<rect x="186.0" width="10.0" y="104.0" fill="#ff0000" stroke="#000000" height="10.0">
		</rect>
		<rect x="196.0" width="10.0" y="104.0" fill="#ff0000" stroke="#000000" height="10.0">
		</rect>
		<rect x="206.0" width="10.0" y="104.0" fill="#ff0000" stroke="#000000" height="10.0">
		</rect>
		<rect x="146.0" width="10.0" y="114.0" fill="#ff0000" stroke="#000000" height="10.0">
		</rect>
		<rect x="156.0" width="10.0" y="114.0" fill="#ff0000" stroke="#000000" height="10.0">
		</rect>
		<rect x="166.0" width="10.0" y="114.0" fill="#ff0000" stroke="#000000" height="10.0">
		</rect>
		<rect x="176.0" width="10.0" y="114.0" fill="#ff0000" stroke="#000000" height="10.0">
		</rect>
		<rect x="186.0" width="10.0" y="114.0" fill="#ff0000" stroke="#000000" height="10.0">
		</rect>
		<rect x="196.0" width="10.0" y="114.0" fill="#ff0000" stroke="#000000" height="10.0">
		</rect>
		<rect x="206.0" width="10.0" y="114.0" fill="#ff0000" stroke="#000000" height="10.0">
		</rect>
		<rect x="146.0" width="10.0" y="124.0" fill="#ff0000" stroke="#000000" height="10.0">
		</rect>
		<rect x="156.0" width="10.0" y="124.0" fill="#ff0000" stroke="#000000" height="10.0">
		</rect>
		<rect x="166.0" width="10.0" y="124.0" fill="#ff0000" stroke="#000000" height="10.0">
		</rect>
		<rect x="176.0" width="10.0" y="124.0" fill="#ff0000" stroke="#000000" height="10.0">
		</rect>
		<rect x="186.0" width="10.0" y="124.0" fill="#ff0000" stroke="#000000" height="10.0">
		</rect>
		<rect x="196.0" width="10.0" y="124.0" fill="#ff0000" stroke="#000000" height="10.0">
		</rect>
		<rect x="206.0" width="10.0" y="124.0" fill="#ff0000" stroke="#000000" height="10.0">
		</rect>
		<rect x="146.0" width="10.0" y="134.0" fill="#ff0000" stroke="#000000" height="10.0">
		</rect>
		<rect x="156.0" width="10.0" y="134.0" fill="#ff0000" stroke="#000000" height="10.0">
		</rect>
		<rect x="166.0" width="10.0" y="134.0" fill="#ff0000" stroke="#000000" height="10.0">
		</rect>
		<rect x="176.0" width="10.0" y="134.0" fill="#ff0000" stroke="#000000" height="10.0">
		</rect>
		<rect x="186.0" width="10.0" y="134.0" fill="#ff0000" stroke="#000000" height="10.0">
		</rect>
		<rect x="196.0" width="10.0" y="134.0" fill="#ff0000" stroke="#000000" height="10.0">
		</rect>
		<rect x="206.0" width="10.0" y="134.0" fill="#ff0000" stroke="#000000" height="10.0">
		</rect>
		<rect x="74.0" width="10.0" y="2.0" fill="#ffffff" stroke="#000000" height="10.0">
		</rect>
		<rect x="84.0" width="10.0" y="2.0" fill="#ffffff" stroke="#000000" height="10.0">
		</rect>
		<rect x="94.0" width="10.0" y="2.0" fill="#ffffff" stroke="#000000" height="10.0">
		</rect>
		<rect x="104.0" width="10.0" y="2.0" fill="#ffffff" stroke="#000000" height="10.0">
		</rect>
		<rect x="114.0" width="10.0" y="2.0" fill="#ffffff" stroke="#000000" height="10.0">
		</rect>
		<rect x="124.0" width="10.0" y="2.0" fill="#ffffff" stroke="#000000" height="10.0">
		</rect>
		<rect x="134.0" width="10.0" y="2.0" fill="#ffffff" stroke="#000000" height="10.0">
		</rect>
		<rect x="74.0" width="10.0" y="12.0" fill="#ffffff" stroke="#000000" height="10.0">
		</rect>
		<rect x="84.0" width="10.0" y="12.0" fill="#ffffff" stroke="#000000" height="10.0">
		</rect>
		<rect x="94.0" width="10.0" y="12.0" fill="#ffffff" stroke="#000000" height="10.0">
		</rect>
		<rect x="104.0" width="10.0" y="12.0" fill="#ffffff" stroke="#000000" height="10.0">
		</rect>
		<rect x="114.0" width="10.0" y="12.0" fill="#ffffff" stroke="#000000" height="10.0">
		</rect>
		<rect x="124.0" width="10.0" y="12.0" fill="#ffffff" stroke="#000000" height="10.0">
		</rect>
		<rect x="134.0" width="10.0" y="12.0" fill="#ffffff" stroke="#000000" height="10.0">
		</rect>
		<rect x="74.0" width="10.0" y="22.0" fill="#ffffff" stroke="#000000" height="10.0">
		</rect>
		<rect x="84.0" width="10.0" y="22.0" fill="#ffffff" stroke="#000000" height="10.0">
		</rect>
		<rect x="94.0" width="10.0" y="22.0" fill="#ffffff" stroke="#000000" height="10.0">
		</rect>
		<rect x="104.0" width="10.0" y="22.0" fill="#ffffff" stroke="#000000" height="10.0">
		</rect>
		<rect x="114.0" width="10.0" y="22.0" fill="#ffffff" stroke="#000000" height="10.0">
		</rect>
		<rect x="124.0" width="10.0" y="22.0" fill="#ffffff" stroke="#000000" height="10.0">
		</rect>
		<rect x="134.0" width="10.0" y="22.0" fill="#ffffff" stroke="#000000" height="10.0">
		</rect>
		<rect x="74.0" width="10.0" y="32.0" fill="#ffffff" stroke="#000000" height="10.0">
		</rect>
		<rect x="84.0" width="10.0" y="32.0" fill="#ffffff" stroke="#000000" height="10.0">
		</rect>
		<rect x="94.0" width="10.0" y="32.0" fill="#ffffff" stroke="#000000" height="10.0">
		</rect>
		<rect x="104.0" width="10.0" y="32.0" fill="#ffffff" stroke="#000000" height="10.0">
		</rect>
		<rect x="114.0" width="10.0" y="32.0" fill="#ffffff" stroke="#000000" height="10.0">
		</rect>
		<rect x="124.0" width="10.0" y="32.0" fill="#ffffff" stroke="#000000" height="10.0">
		</rect>
		<rect x="134.0" width="10.0" y="32.0" fill="#ffffff" stroke="#000000" height="10.0">
		</rect>
		<rect x="74.0" width="10.0" y="42.0" fill="#ffffff" stroke="#000000" height="10.0">
		</rect>
		<rect x="84.0" width="10.0" y="42.0" fill="#ffffff" stroke="#000000" height="10.0">
		</rect>
		<rect x="94.0" width="10.0" y="42.0" fill="#ffffff" stroke="#000000" height="10.0">
		</rect>
		<rect x="104.0" width="10.0" y="42.0" fill="#ffffff" stroke="#000000" height="10.0">
		</rect>
		<rect x="114.0" width="10.0" y="42.0" fill="#ffffff" stroke="#000000" height="10.0">
		</rect>
		<rect x="124.0" width="10.0" y="42.0" fill="#ffffff" stroke="#000000" height="10.0">
		</rect>
		<rect x="134.0" width="10.0" y="42.0" fill="#ffffff" stroke="#000000" height="10.0">
		</rect>
		<rect x="74.0" width="10.0" y="52.0" fill="#ffffff" stroke="#000000" height="10.0">
		</rect>
		<rect x="84.0" width="10.0" y="52.0" fill="#ffffff" stroke="#000000" height="10.0">
		</rect>
		<rect x="94.0" width="10.0" y="52.0" fill="#ffffff" stroke="#000000" height="10.0">
		</rect>
		<rect x="104.0" width="10.0" y="52.0" fill="#ffffff" stroke="#000000" height="10.0">
		</rect>
		<rect x="114.0" width="10.0" y="52.0" fill="#ffffff" stroke="#000000" height="10.0">
		</rect>
		<rect x="124.0" width="10.0" y="52.0" fill="#ffffff" stroke="#000000" height="10.0">
		</rect>
		<rect x="134.0" width="10.0" y="52.0" fill="#ffffff" stroke="#000000" height="10.0">
		</rect>
		<rect x="74.0" width="10.0" y="62.0" fill="#ffffff" stroke="#000000" height="10.0">
		</rect>
		<rect x="84.0" width="10.0" y="62.0" fill="#ffffff" stroke="#000000" height="10.0">
		</rect>
		<rect x="94.0" width="10.0" y="62.0" fill="#ffffff" stroke="#000000" height="10.0">
		</rect>
		<rect x="104.0" width="10.0" y="62.0" fill="#ffffff" stroke="#000000" height="10.0">
		</rect>
		<rect x="114.0" width="10.0" y="62.0" fill="#ffffff" stroke="#000000" height="10.0">
		</rect>
		<rect x="124.0" width="10.0" y="62.0" fill="#ffffff" stroke="#000000" height="10.0">
		</rect>
		<rect x="134.0" width="10.0" y="62.0" fill="#ffffff" stroke="#000000" height="10.0">
		</rect>
		<rect x="74.0" width="10.0" y="74.0" fill="#00ff00" stroke="#000000" height="10.0">
		</rect>
		<rect x="84.0" width="10.0" y="74.0" fill="#00ff00" stroke="#000000" height="10.0">
		</rect>
		<rect x="94.0" width="10.0" y="74.0" fill="#00ff00" stroke="#000000" height="10.0">
		</rect>
		<rect x="104.0" width="10.0" y="74.0" fill="#00ff00" stroke="#000000" height="10.0">
		</rect>
		<rect x="114.0" width="10.0" y="74.0" fill="#00ff00" stroke="#000000" height="10.0">
		</rect>
		<rect x="124.0" width="10.0" y="74.0" fill="#00ff00" stroke="#000000" height="10.0">
		</rect>
		<rect x="134.0" width="10.0" y="74.0" fill="#00ff00" stroke="#000000" height="10.0">
		</rect>
		<rect x="74.0" width="10.0" y="84.0" fill="#00ff00" stroke="#000000" height="10.0">
		</rect>
		<rect x="84.0" width="10.0" y="84.0" fill="#00ff00" stroke="#000000" height="10.0">
		</rect>
		<rect x="94.0" width="10.0" y="84.0" fill="#00ff00" stroke="#000000" height="10.0">
		</rect>
		<rect x="104.0" width="10.0" y="84.0" fill="#00ff00" stroke="#000000" height="10.0">
		</rect>
		<rect x="114.0" width="10.0" y="84.0" fill="#00ff00" stroke="#000000" height="10.0">
		</rect>
		<rect x="124.0" width="10.0" y="84.0" fill="#00ff00" stroke="#000000" height="10.0">
		</rect>
		<rect x="134.0" width="10.0" y="84.0" fill="#00ff00" stroke="#000000" height="10.0">
		</rect>
		<rect x="74.0" width="10.0" y="94.0" fill="#00ff00" stroke="#000000" height="10.0">
		</rect>
		<rect x="84.0" width="10.0" y="94.0" fill="#00ff00" stroke="#000000" height="10.0">
		</rect>
		<rect x="94.0" width="10.0" y="94.0" fill="#00ff00" stroke="#000000" height="10.0">
		</rect>
		<rect x="104.0" width="10.0" y="94.0" fill="#00ff00" stroke="#000000" height="10.0">
		</rect>
		<rect x="114.0" width="10.0" y="94.0" fill="#00ff00" stroke="#000000" height="10.0">
		</rect>
		<rect x="124.0" width="10.0" y="94.0" fill="#00ff00" stroke="#000000" height="10.0">
		</rect>
		<rect x="134.0" width="10.0" y="94.0" fill="#00ff00" stroke="#000000" height="10.0">
		</rect>
		<rect x="74.0" width="10.0" y="104.0" fill="#00ff00" stroke="#000000" height="10.0">
		</rect>
		<rect x="84.0" width="10.0" y="104.0" fill="#00ff00" stroke="#000000" height="10.0">
		</rect>
		<rect x="94.0" width="10.0" y="104.0" fill="#00ff00" stroke="#000000" height="10.0">
		</rect>
		<rect x="104.0" width="10.0" y="104.0" fill="#00ff00" stroke="#000000" height="10.0">
		</rect>
		<rect x="114.0" width="10.0" y="104.0" fill="#00ff00" stroke="#000000" height="10.0">
		</rect>
		<rect x="124.0" width="10.0" y="104.0" fill="#00ff00" stroke="#000000" height="10.0">
		</rect>
		<rect x="134.0" width="10.0" y="104.0" fill="#00ff00" stroke="#000000" height="10.0">
		</rect>
		<rect x="74.0" width="10.0" y="114.0" fill="#00ff00" stroke="#000000" height="10.0">
		</rect>
		<rect x="84.0" width="10.0" y="114.0" fill="#00ff00" stroke="#000000" height="10.0">
		</rect>
		<rect x="94.0" width="10.0" y="114.0" fill="#00ff00" stroke="#000000" height="10.0">
		</rect>
		<rect x="104.0" width="10.0" y="114.0" fill="#00ff00" stroke="#000000" height="10.0">
		</rect>
		<rect x="114.0" width="10.0" y="114.0" fill="#00ff00" stroke="#000000" height="10.0">
		</rect>
		<rect x="124.0" width="10.0" y="114.0" fill="#00ff00" stroke="#000000" height="10.0">
		</rect>
		<rect x="134.0" width="10.0" y="114.0" fill="#00ff00" stroke="#000000" height="10.0">
		</rect>
		<rect x="74.0" width="10.0" y="124.0" fill="#00ff00" stroke="#000000" height="10.0">
		</rect>
		<rect x="84.0" width="10.0" y="124.0" fill="#00ff00" stroke="#000000" height="10.0">
		</rect>
		<rect x="94.0" width="10.0" y="124.0" fill="#00ff00" stroke="#000000" height="10.0">
		</rect>
		<rect x="104.0" width="10.0" y="124.0" fill="#00ff00" stroke="#000000" height="10.0">
		</rect>
		<rect x="114.0" width="10.0" y="124.0" fill="#00ff00" stroke="#000000" height="10.0">
		</rect>
		<rect x="124.0" width="10.0" y="124.0" fill="#00ff00" stroke="#000000" height="10.0">
		</rect>
		<rect x="134.0" width="10.0" y="124.0" fill="#00ff00" stroke="#000000" height="10.0">
		</rect>
		<rect x="74.0" width="10.0" y="134.0" fill="#00ff00" stroke="#000000" height="10.0">
		</rect>
		<rect x="84.0" width="10.0" y="134.0" fill="#00ff00" stroke="#000000" height="10.0">
		</rect>
		<rect x="94.0" width="10.0" y="134.0" fill="#00ff00" stroke="#000000" height="10.0">
		</rect>
		<rect x="104.0" width="10.0" y="134.0" fill="#00ff00" stroke="#000000" height="10.0">
		</rect>
		<rect x="114.0" width="10.0" y="134.0" fill="#00ff00" stroke="#000000" height="10.0">
		</rect>
		<rect x="124.0" width="10.0" y="134.0" fill="#00ff00" stroke="#000000" height="10.0">
		</rect>
		<rect x="134.0" width="10.0" y="134.0" fill="#00ff00" stroke="#000000" height="10.0">
		</rect>
	</g>
</svg>